<?xml version="1.0" standalone="no"?>
<!DOCTYPE svg PUBLIC "-//W3C//DTD SVG 20010904//EN"
 "http://www.w3.org/TR/2001/REC-SVG-20010904/DTD/svg10.dtd">
<svg version="1.0" xmlns="http://www.w3.org/2000/svg"
 width="512.000000pt" height="512.000000pt" viewBox="0 0 512.000000 512.000000"
 preserveAspectRatio="xMidYMid meet">
<metadata>
Created by potrace 1.11, written by Peter Selinger 2001-2013
</metadata>
<g transform="translate(0.000000,512.000000) scale(0.100000,-0.100000)"
fill="#000000" stroke="none">
<path d="M2520 4895 c-19 -12 -55 -33 -80 -46 -25 -14 -64 -37 -87 -52 -24
-15 -45 -27 -47 -27 -3 0 -67 -36 -143 -81 -76 -45 -169 -99 -208 -121 -38
-23 -82 -49 -97 -59 -15 -11 -29 -19 -32 -19 -3 0 -125 -70 -273 -156 -487
-285 -626 -364 -634 -364 -5 0 -9 -4 -9 -10 0 -5 -4 -10 -9 -10 -5 0 -44 -20
-85 -45 -42 -25 -81 -45 -86 -45 -6 0 -10 -4 -10 -9 0 -5 -12 -14 -27 -20 -28
-11 -100 -52 -143 -82 l-23 -15 1 -1170 c1 -1322 -1 -1194 10 -1194 5 0 107
-58 228 -128 120 -71 296 -173 389 -227 94 -54 244 -142 335 -195 91 -53 185
-108 210 -122 25 -14 182 -105 350 -203 168 -98 325 -189 350 -203 25 -13 70
-40 101 -59 l56 -34 154 89 c85 49 278 161 429 249 151 88 286 166 300 174 14
7 41 23 60 35 19 11 82 48 140 82 58 33 269 156 470 272 201 117 385 224 410
237 25 14 51 31 59 38 11 11 13 201 13 1167 -1 634 -1 1163 -1 1174 -1 17 -38
43 -178 125 -98 57 -181 108 -185 114 -4 5 -8 6 -8 1 0 -5 -6 -4 -12 2 -18 14
-427 252 -434 252 -3 0 -25 14 -49 30 -24 17 -46 30 -50 30 -3 0 -34 17 -68
38 -34 20 -71 43 -82 49 -11 6 -119 69 -240 139 -121 70 -323 188 -449 261
-306 179 -274 165 -316 138z m168 -455 c62 -35 111 -69 109 -75 -2 -5 -12 -15
-23 -20 -19 -10 -137 -78 -164 -95 -38 -23 -263 -154 -340 -198 -79 -44 -927
-536 -945 -548 -18 -11 -34 -5 -142 57 -68 39 -123 74 -123 77 0 4 30 24 68
45 37 21 74 42 82 47 8 6 94 55 190 111 96 56 195 113 220 127 25 15 53 31 62
37 10 5 75 43 145 84 71 41 151 88 178 103 28 16 57 33 65 38 8 6 94 56 190
111 96 56 191 111 210 122 67 39 85 47 95 45 6 -2 61 -32 123 -68z m597 -347
c89 -52 112 -70 102 -79 -6 -6 -151 -92 -322 -191 -170 -99 -499 -289 -730
-424 -230 -134 -426 -247 -435 -250 -9 -4 -54 16 -115 53 -55 32 -108 61 -117
65 -10 3 -18 9 -18 13 0 6 492 297 615 364 11 6 27 16 35 22 8 7 38 24 65 39
28 14 66 35 85 47 120 69 228 133 250 147 14 9 36 21 50 28 14 6 108 61 210
121 102 61 191 110 198 111 7 1 64 -29 127 -66z m677 -393 c54 -30 98 -58 98
-62 0 -7 -638 -378 -651 -378 -5 0 -9 -4 -9 -10 0 -5 -4 -10 -9 -10 -12 0
-225 -123 -229 -132 -2 -5 -7 -8 -12 -8 -5 0 -75 -39 -157 -86 -81 -48 -163
-95 -180 -105 -56 -32 -95 -55 -169 -98 -39 -22 -77 -41 -85 -41 -8 0 -72 34
-143 75 -71 41 -132 75 -137 75 -5 0 -9 5 -9 10 0 6 -1 13 -1 17 -2 7 36 33
71 50 8 4 75 43 150 86 74 44 155 91 180 105 25 14 106 61 180 105 74 44 180
105 235 137 55 31 221 128 369 215 149 86 279 160 290 165 15 5 35 -1 71 -24
28 -18 94 -56 147 -86z m-2926 -459 l90 -53 0 -490 c-1 -423 1 -491 14 -502
12 -10 222 -133 521 -306 55 -32 252 -146 282 -163 18 -11 55 -32 82 -47 l50
-29 0 486 c0 266 3 487 7 489 4 3 53 -23 108 -56 56 -33 104 -60 107 -60 2 0
23 -13 46 -29 l42 -29 -2 -863 c0 -475 -1 -867 -2 -871 -1 -8 -53 19 -166 87
-38 23 -132 77 -208 121 -76 43 -150 87 -165 96 -15 10 -34 21 -42 25 -8 4
-91 52 -185 106 -93 55 -190 111 -215 125 -25 14 -69 40 -98 59 -29 18 -54 33
-56 33 -7 0 -350 201 -360 210 -7 7 -13 1679 -7 1743 1 5 16 0 34 -10 17 -11
73 -43 123 -72z m3200 -785 c0 -867 -1 -874 -21 -887 -11 -7 -101 -59 -200
-116 -99 -56 -189 -109 -200 -118 -10 -8 -23 -15 -27 -15 -4 0 -32 -16 -62
-35 -30 -19 -57 -35 -60 -35 -3 0 -30 -16 -60 -35 -30 -19 -59 -35 -64 -35 -5
0 -28 -14 -50 -30 -23 -17 -44 -30 -47 -30 -3 0 -54 -29 -114 -65 -60 -36
-115 -65 -120 -65 -6 0 -11 -4 -11 -10 0 -5 -4 -10 -9 -10 -7 0 -44 -20 -119
-65 -85 -50 -328 -190 -332 -190 -3 0 -5 392 -5 872 l0 872 90 53 c49 29 95
55 100 57 6 2 26 14 45 26 74 45 67 88 67 -451 1 -267 3 -487 5 -490 4 -4 48
19 113 59 33 21 88 53 135 79 25 14 101 58 170 98 69 40 139 80 155 90 273
157 352 204 364 215 12 12 15 64 15 285 1 149 -3 270 -8 270 -8 0 -54 -25
-151 -82 -16 -10 -45 -26 -63 -35 -32 -17 -33 -19 -32 -78 1 -33 1 -92 1 -130
l-1 -70 -161 -84 c-88 -46 -162 -81 -164 -79 -6 5 -10 656 -5 661 3 2 75 43
160 92 85 48 180 103 211 122 31 19 71 42 88 51 17 9 93 53 169 97 75 44 151
87 167 97 17 9 30 17 30 17 0 1 1 -392 1 -873z m-2515 370 c5 -157 2 -556 -5
-556 -5 0 -60 30 -123 66 -111 64 -113 66 -114 102 0 44 0 448 0 509 l1 41
120 -70 c92 -54 120 -75 121 -92z"/>
</g>
</svg>
